# xmcd CD database file
#
# Track frame offsets:
#	150
#	17747
#	36140
#	57457
#	81657
#	100127
#	120265
#	141860
#	157730
#	183945
#
# Disc length: 2771 seconds
#
# Revision: 0
# Processed by: cddbd v1.5PL3 Copyright (c) Steve Scherf et al.
# Submitted via: CDex 1.51
#
DISCID=7a0ad10a
DTITLE=川島だりあ - Believin' Myself
DYEAR=1900
DGENRE=JPop
TTITLE0=Feel so good
TTITLE1=Take me to the top
TTITLE2=Shiny day
TTITLE3=Nothin' gonna stop my love
TTITLE4=Rescue me
TTITLE5=Carry on
TTITLE6=Hangin'on your gun!
TTITLE7=Too late -Album Version-
TTITLE8=Waiting
TTITLE9=Believin' myself
EXTD=
EXTT0=
EXTT1=
EXTT2=
EXTT3=
EXTT4=
EXTT5=
EXTT6=
EXTT7=
EXTT8=
EXTT9=
PLAYORDER=
